<svg xmlns="http://www.w3.org/2000/svg" width="600" height="600" viewBox="0 0 600 600">
  <rect width="600" height="600" fill="#f8fafc"/>
  <rect x="80" y="80" width="440" height="440" rx="24" fill="#ffffff" stroke="#e2e8f0" stroke-width="4"/>
  <g fill="#334155">
    <rect x="140" y="140" width="70" height="70" rx="8" fill="#0f172a"/>
    <rect x="230" y="140" width="10" height="70"/>
    <rect x="250" y="140" width="10" height="70"/>
    <rect x="270" y="140" width="10" height="70"/>
    <rect x="300" y="140" width="10" height="70"/>
    <rect x="320" y="140" width="10" height="70"/>
    <rect x="340" y="140" width="70" height="70" rx="8" fill="#0f172a"/>
    <rect x="140" y="230" width="10" height="70"/>
    <rect x="230" y="230" width="70" height="10"/>
    <rect x="230" y="250" width="10" height="40"/>
    <rect x="250" y="250" width="50" height="40" fill="#e2e8f0"/>
    <rect x="320" y="230" width="10" height="70"/>
    <rect x="340" y="230" width="70" height="10"/>
    <rect x="140" y="320" width="10" height="70"/>
    <rect x="140" y="340" width="70" height="10"/>
    <rect x="140" y="360" width="70" height="10"/>
    <rect x="140" y="380" width="70" height="10"/>
    <rect x="230" y="320" width="10" height="70"/>
    <rect x="230" y="320" width="70" height="10"/>
    <rect x="280" y="340" width="20" height="50" fill="#e2e8f0"/>
    <rect x="320" y="320" width="70" height="70" rx="8" fill="#0f172a"/>
    <rect x="340" y="140" width="10" height="70"/>
    <rect x="340" y="230" width="10" height="70"/>
    <rect x="230" y="140" width="70" height="10" fill="#0f172a"/>
    <rect x="250" y="150" width="10" height="10" fill="#e2e8f0"/>
    <rect x="270" y="150" width="10" height="10" fill="#e2e8f0"/>
    <rect x="250" y="170" width="10" height="10" fill="#e2e8f0"/>
    <rect x="270" y="170" width="10" height="10" fill="#e2e8f0"/>
    <rect x="230" y="270" width="40" height="10" fill="#e2e8f0"/>
    <rect x="230" y="290" width="40" height="10" fill="#e2e8f0"/>
    <rect x="250" y="270" width="10" height="30" fill="#0f172a"/>
    <rect x="270" y="270" width="10" height="30" fill="#0f172a"/>
    <rect x="250" y="230" width="10" height="10" fill="#0f172a"/>
    <rect x="140" y="400" width="10" height="10" fill="#0f172a"/>
    <rect x="160" y="400" width="10" height="10" fill="#0f172a"/>
    <rect x="140" y="420" width="10" height="10" fill="#0f172a"/>
    <rect x="160" y="420" width="10" height="10" fill="#0f172a"/>
    <rect x="320" y="400" width="10" height="10" fill="#0f172a"/>
    <rect x="340" y="400" width="10" height="10" fill="#0f172a"/>
    <rect x="320" y="420" width="10" height="10" fill="#0f172a"/>
    <rect x="340" y="420" width="10" height="10" fill="#0f172a"/>
  </g>
  <text x="300" y="540" text-anchor="middle" font-family="Microsoft YaHei, sans-serif" font-size="26" fill="#94a3b8">请将收款码图片放到 assets/qr-alipay.jpg 后自动替换</text>
</svg>
